<?xml version="1.0" standalone="no"?>
<!DOCTYPE svg PUBLIC "-//W3C//DTD SVG 20010904//EN"
 "http://www.w3.org/TR/2001/REC-SVG-20010904/DTD/svg10.dtd">
<svg version="1.0" xmlns="http://www.w3.org/2000/svg"
 width="318.000000pt" height="106.000000pt" viewBox="0 0 318.000000 106.000000"
 preserveAspectRatio="xMidYMid meet">

<g transform="translate(0.000000,106.000000) scale(0.100000,-0.100000)"
fill="#000000" stroke="none">
<path d="M1974 418 c-4 -6 3 -19 16 -30 l22 -18 -21 0 c-12 0 -19 -4 -16 -10
9 -14 42 -12 48 3 4 10 6 10 6 0 1 -18 21 -16 21 2 0 20 10 19 26 -2 12 -16
13 -13 13 27 0 40 -1 43 -13 28 -16 -22 -26 -23 -26 -3 0 8 -4 15 -10 15 -5 0
-10 -11 -10 -25 0 -23 -2 -24 -20 -13 -17 10 -18 14 -5 16 8 2 15 8 15 13 0
13 -37 11 -46 -3z"/>
<path d="M2113 423 c-7 -2 -13 -17 -13 -33 0 -32 31 -50 55 -30 10 8 14 8 17
-1 5 -15 58 28 58 47 0 18 -38 28 -55 14 -9 -7 -15 -8 -20 0 -6 11 -21 12 -42
3z m37 -33 c0 -11 -7 -20 -15 -20 -8 0 -15 9 -15 20 0 11 7 20 15 20 8 0 15
-9 15 -20z m60 10 c0 -5 -4 -10 -10 -10 -5 0 -10 5 -10 10 0 6 5 10 10 10 6 0
10 -4 10 -10z"/>
<path d="M2260 390 c0 -33 3 -40 20 -40 25 0 26 17 3 23 -17 4 -17 5 0 6 9 0
17 5 17 10 0 5 -8 12 -17 14 -17 4 -17 5 0 6 24 1 22 21 -3 21 -17 0 -20 -7
-20 -40z"/>
<path d="M2315 390 c0 -22 3 -40 7 -40 5 0 8 5 8 12 0 9 3 9 12 0 18 -18 35
-15 61 11 l22 22 3 -22 c4 -27 22 -31 22 -6 0 15 2 14 15 -3 13 -18 14 -16 12
21 -2 33 -6 41 -24 43 -14 2 -23 -2 -23 -9 0 -10 -3 -10 -12 -1 -7 7 -20 12
-30 12 -14 0 -18 -8 -18 -37 0 -28 -3 -34 -10 -23 -5 8 -6 26 -3 40 6 22 5 24
-10 11 -11 -9 -17 -10 -17 -2 0 6 -3 11 -8 11 -4 0 -7 -18 -7 -40z m95 10 c0
-5 -4 -10 -10 -10 -5 0 -10 5 -10 10 0 6 5 10 10 10 6 0 10 -4 10 -10z m60 6
c0 -3 -4 -8 -10 -11 -5 -3 -10 -1 -10 4 0 6 5 11 10 11 6 0 10 -2 10 -4z"/>
<path d="M2490 391 l0 -40 76 1 c81 2 106 17 69 44 -17 13 -17 14 -2 14 9 0
17 5 17 10 0 16 -40 11 -47 -5 -3 -9 2 -22 13 -30 13 -10 14 -14 6 -15 -8 0
-25 9 -39 20 -19 15 -21 20 -9 20 9 0 16 5 16 10 0 14 -37 13 -46 -2 -4 -6 2
-19 14 -29 l21 -17 -22 -4 c-33 -6 -54 2 -36 13 12 8 11 11 -1 19 -10 6 -11
10 -2 10 6 0 12 5 12 10 0 6 -9 10 -20 10 -17 0 -20 -7 -20 -39z"/>
</g>
</svg>
